# xmcd
#
# Track frame offsets:
#	150
#	13877
#	29994
#	44587
#	59025
#	75245
#	90642
#	102615
#	119032
#	134285
#
# Disc length: 2014 seconds
# Revision: 6
# Processed by: cddbd v1.5.2PL0 Copyright (c) Steve Scherf et al.
# Submitted via: dBpowerAMP V12.0
#
DISCID=9407dc0a
DTITLE=Ricochet,OK - Ricochet
DYEAR=1995
DGENRE=Country
TTITLE0=Daddy's Money
TTITLE1=What Do I Know
TTITLE2=I Can't Dance
TTITLE3=Love Is Stronger Than Pride
TTITLE4=Ease My Troubled Mind
TTITLE5=A Little Bit Of Love (Is A Dangerous Thing)
TTITLE6=From Good To Bad To Worse To Gone
TTITLE7=The Truth Is Lied
TTITLE8=I Wasn't Ready For You
TTITLE9=Rowdy
EXTD=
EXTT0=
EXTT1=
EXTT2=
EXTT3=
EXTT4=
EXTT5=
EXTT6=
EXTT7=
EXTT8=
EXTT9=
PLAYORDER=
